<svg width="60" height="68" viewBox="0 0 60 68" fill="none" xmlns="http://www.w3.org/2000/svg">
<path d="M59.3917 0.666626L54.0364 60.6597L29.9641 67.3333L5.95803 60.6691L0.608398 0.666626H59.3917Z" fill="#264DE4"/>
<path d="M49.4516 56.8395L54.0281 5.57275H30V62.2323L49.4516 56.8395Z" fill="#2965F1"/>
<path d="M12.8723 27.8268L13.5319 35.1858H30V27.8268H12.8723Z" fill="#EBEBEB"/>
<path d="M30 12.9318H29.9746H11.547L12.216 20.2909H30V12.9318Z" fill="#EBEBEB"/>
<path d="M30.0001 54.5954V46.9389L29.9678 46.9475L21.772 44.7344L21.248 38.8652H17.2655H13.8607L14.8917 50.42L29.9662 54.6048L30.0001 54.5954Z" fill="#EBEBEB"/>
<path d="M39.0365 35.1856L38.1823 44.7298L29.9746 46.9451V54.6013L45.0611 50.42L45.1717 49.1768L46.901 29.8028L47.0806 27.8267L48.4091 12.9318H29.9746V20.2909H40.3443L39.6746 27.8267H29.9746V35.1856H39.0365Z" fill="white"/>
</svg>
