<svg width="68" height="68" viewBox="0 0 67 48" fill="none" xmlns="http://www.w3.org/2000/svg">
<path d="M66.0092 18.0589C65.8284 17.9153 64.1405 16.6408 60.5809 16.6408C59.641 16.6449 58.703 16.7255 57.7762 16.8819C57.0873 12.1598 53.1832 9.8575 53.0082 9.75422L52.0523 9.203L51.4237 10.1102C50.6364 11.3287 50.0617 12.6721 49.7243 14.0831C49.087 16.7786 49.4746 19.3104 50.8438 21.4748C49.1904 22.3963 46.5379 22.6231 46.0012 22.6431H2.08684C0.939812 22.6447 0.00905166 23.5717 0.00280056 24.7186C-0.0484211 28.5657 0.603373 32.3899 1.92609 36.0029C3.43885 39.9701 5.68943 42.8923 8.61747 44.6807C11.8985 46.6901 17.2292 47.8383 23.2718 47.8383C26.0016 47.8469 28.7262 47.5999 31.41 47.1006C35.1407 46.4156 38.7306 45.1116 42.0312 43.2425C44.7508 41.6676 47.1984 39.664 49.2795 37.309C52.7586 33.3705 54.8313 28.9842 56.3727 25.086H56.987C60.7962 25.086 63.1387 23.5617 64.4305 22.2843C65.2889 21.4696 65.9591 20.4772 66.3939 19.3764L66.6667 18.5784L66.0092 18.0589Z" fill="#2496ED"/>
<path d="M6.15736 21.3571H12.0421C12.3259 21.3571 12.5559 21.127 12.5559 20.8433V15.6015C12.5575 15.3177 12.3287 15.0864 12.045 15.0848C12.044 15.0848 12.043 15.0848 12.0421 15.0848H6.15736C5.87354 15.0848 5.64355 15.3149 5.64355 15.5986V15.6015V20.8432C5.64355 21.127 5.87354 21.3571 6.15736 21.3571Z" fill="#2496ED"/>
<path d="M14.2668 21.3571H20.1515C20.4353 21.3571 20.6653 21.127 20.6653 20.8433V15.6015C20.6669 15.3177 20.4381 15.0864 20.1543 15.0848C20.1534 15.0848 20.1523 15.0848 20.1514 15.0848H14.2667C13.9813 15.0848 13.75 15.3161 13.75 15.6015V20.8432C13.7517 21.1275 13.9825 21.3571 14.2668 21.3571Z" fill="#2496ED"/>
<path d="M22.4996 21.3571H28.3843C28.6681 21.3571 28.8981 21.127 28.8981 20.8433V15.6015C28.8997 15.3177 28.6709 15.0864 28.3871 15.0848C28.3862 15.0848 28.3852 15.0848 28.3842 15.0848H22.4995C22.2157 15.0848 21.9857 15.3149 21.9857 15.5986V15.6015V20.8432C21.9858 21.127 22.2159 21.3571 22.4996 21.3571Z" fill="#2496ED"/>
<path d="M30.6349 21.3571H36.5196C36.8039 21.3571 37.0347 21.1276 37.0363 20.8433V15.6015C37.0363 15.3161 36.805 15.0848 36.5196 15.0848H30.6349C30.3511 15.0848 30.1211 15.3149 30.1211 15.5986V15.6015V20.8432C30.1211 21.127 30.3512 21.3571 30.6349 21.3571Z" fill="#2496ED"/>
<path d="M14.2668 13.8161H20.1515C20.4357 13.8145 20.6653 13.5836 20.6653 13.2994V8.05775C20.6653 7.77393 20.4353 7.54395 20.1515 7.54395H14.2668C13.9826 7.54395 13.7517 7.77346 13.7501 8.05775V13.2994C13.7517 13.5842 13.9821 13.8145 14.2668 13.8161Z" fill="#2496ED"/>
<path d="M22.4995 13.8161H28.3842C28.6684 13.8145 28.898 13.5836 28.898 13.2994V8.05775C28.898 7.77393 28.668 7.54395 28.3842 7.54395H22.4995C22.2157 7.54395 21.9857 7.77402 21.9857 8.05775V13.2994C21.9857 13.5836 22.2153 13.8145 22.4995 13.8161Z" fill="#2496ED"/>
<path d="M30.6349 13.8161H36.5196C36.8044 13.8145 37.0347 13.5842 37.0363 13.2994V8.05775C37.0347 7.77346 36.8039 7.54395 36.5196 7.54395H30.6349C30.3511 7.54395 30.1211 7.77402 30.1211 8.05775V13.2994C30.1211 13.5836 30.3507 13.8145 30.6349 13.8161Z" fill="#2496ED"/>
<path d="M30.6349 6.27228H36.5196C36.8039 6.27228 37.0347 6.04267 37.0363 5.75848V0.513803C37.0347 0.229518 36.8039 0 36.5196 0H30.6349C30.3511 0 30.1211 0.229984 30.1211 0.513803V5.75838C30.1211 6.0422 30.3512 6.27228 30.6349 6.27228Z" fill="#2496ED"/>
<path d="M38.8419 21.3571H44.7266C45.0109 21.3571 45.2417 21.1276 45.2433 20.8433V15.6015C45.2433 15.3161 45.012 15.0848 44.7266 15.0848H38.8419C38.5582 15.0848 38.3281 15.3149 38.3281 15.5986V15.6015V20.8432C38.3281 21.127 38.5582 21.3571 38.8419 21.3571Z" fill="#2496ED"/>
</svg>
