<svg width="68" height="66" viewBox="0 0 68 66" fill="none" xmlns="http://www.w3.org/2000/svg">
<path d="M34.0001 0.489502C15.5929 0.489502 0.666626 15.4132 0.666626 33.823C0.666626 48.5508 10.2177 61.0455 23.4622 65.4532C25.128 65.7617 25.7397 64.7301 25.7397 63.8496C25.7397 63.0549 25.7086 60.4288 25.6945 57.6436C16.4208 59.66 14.464 53.7106 14.464 53.7106C12.9478 49.8577 10.763 48.8334 10.763 48.8334C7.73879 46.7645 10.991 46.8068 10.991 46.8068C14.3383 47.0421 16.1009 50.242 16.1009 50.242C19.0738 55.338 23.8987 53.8646 25.8009 53.0131C26.1 50.8584 26.964 49.3882 27.9172 48.5558C20.5135 47.7127 12.7303 44.8545 12.7303 32.0821C12.7303 28.443 14.0324 25.4693 16.1649 23.135C15.8188 22.2953 14.6779 18.9051 16.4878 14.3136C16.4878 14.3136 19.2869 13.4177 25.6569 17.7305C28.3156 16.9917 31.1672 16.6215 34.0001 16.6089C36.8329 16.6215 39.6867 16.9917 42.3506 17.7305C48.713 13.4177 51.5082 14.3136 51.5082 14.3136C53.3225 18.9051 52.1811 22.2953 51.835 23.135C53.9722 25.4693 55.2655 28.4428 55.2655 32.0821C55.2655 44.8848 47.4676 47.704 40.0451 48.5291C41.2406 49.5636 42.3059 51.5923 42.3059 54.702C42.3059 59.1619 42.2672 62.7516 42.2672 63.8496C42.2672 64.7366 42.8672 65.7761 44.5571 65.4488C57.7943 61.0361 67.3333 48.5458 67.3333 33.823C67.3333 15.4132 52.4091 0.489502 34.0001 0.489502Z" fill="white"/>
<path d="M13.1511 47.9738C13.0779 48.1393 12.817 48.189 12.5799 48.0755C12.3381 47.9668 12.2021 47.7409 12.2805 47.5746C12.3524 47.4042 12.6133 47.3566 12.8546 47.4711C13.097 47.5796 13.235 47.8075 13.1511 47.9738ZM14.7908 49.4368C14.6318 49.5842 14.321 49.5157 14.11 49.2828C13.892 49.0504 13.8512 48.7398 14.0125 48.59C14.1764 48.4428 14.4778 48.5116 14.6964 48.7442C14.9144 48.9793 14.9568 49.288 14.7905 49.437L14.7908 49.4368ZM15.9157 51.3086C15.7113 51.4506 15.3772 51.3175 15.1709 51.021C14.9667 50.7248 14.9667 50.3693 15.1753 50.2268C15.3824 50.0843 15.7113 50.2124 15.9204 50.5065C16.1243 50.808 16.1243 51.1635 15.9154 51.3089L15.9157 51.3086ZM17.8179 53.4766C17.6351 53.6779 17.2461 53.6241 16.9612 53.3491C16.6699 53.0803 16.5886 52.6989 16.7719 52.4973C16.9567 52.2955 17.3481 52.3522 17.6351 52.6249C17.9245 52.8931 18.0129 53.2774 17.8181 53.4766H17.8179ZM20.2763 54.2086C20.1961 54.4695 19.8212 54.5882 19.4437 54.4774C19.0667 54.3631 18.8199 54.0573 18.896 53.7935C18.9744 53.5307 19.3509 53.4071 19.7313 53.5258C20.1077 53.6395 20.355 53.943 20.2766 54.2086H20.2763ZM23.0747 54.5189C23.0841 54.794 22.7638 55.0219 22.3675 55.0269C21.9688 55.0355 21.6465 54.8131 21.6423 54.5427C21.6423 54.2651 21.9552 54.0392 22.3537 54.0327C22.75 54.0248 23.0747 54.2458 23.0747 54.5189ZM25.8233 54.4136C25.8709 54.6818 25.5954 54.9574 25.2019 55.0306C24.815 55.1011 24.4569 54.9357 24.4074 54.6698C24.3593 54.3948 24.6401 54.1195 25.0263 54.0481C25.4205 53.9796 25.7732 54.1409 25.8233 54.4136Z" fill="white"/>
</svg>
