<svg width="68" height="68" viewBox="0 0 68 68" fill="none" xmlns="http://www.w3.org/2000/svg">
<path d="M67.3333 0.666626H0.666626V67.3333H67.3333V0.666626Z" fill="#F7DF1E"/>
<path d="M45.4497 52.7502C46.7926 54.9428 48.5397 56.5545 51.6296 56.5545C54.2254 56.5545 55.8836 55.2571 55.8836 53.4645C55.8836 51.3164 54.1799 50.5555 51.3227 49.3058L49.7566 48.6338C45.236 46.7079 42.2328 44.2952 42.2328 39.1947C42.2328 34.4963 45.8127 30.9196 51.4074 30.9196C55.3905 30.9196 58.254 32.3058 60.3175 35.9354L55.4391 39.0677C54.3651 37.1418 53.2063 36.383 51.4074 36.383C49.5725 36.383 48.4095 37.5471 48.4095 39.0677C48.4095 40.9471 49.5735 41.7079 52.2614 42.8719L53.8275 43.5428C59.1503 45.8254 62.1555 48.1524 62.1555 53.3841C62.1555 59.0243 57.7249 62.1143 51.7746 62.1143C45.9566 62.1143 42.1979 59.3418 40.3587 55.7079L45.4497 52.7502ZM23.3196 53.2931C24.3037 55.0391 25.1989 56.5153 27.3513 56.5153C29.4095 56.5153 30.7079 55.71 30.7079 52.5788V31.2772H36.9725V52.6635C36.9725 59.1502 33.1693 62.1026 27.618 62.1026C22.6021 62.1026 19.6973 59.5069 18.2201 56.3804L23.3196 53.2931Z" fill="black"/>
</svg>
