<svg width="50" height="68" viewBox="0 0 50 68" fill="none" xmlns="http://www.w3.org/2000/svg">
    <path d="M16.2512 52.2238C16.2512 52.2238 13.7037 53.7052 18.0643 54.2065C23.3471 54.8091 26.047 54.7228 31.8688 53.6209C31.8688 53.6209 33.3994 54.5806 35.5368 55.4119C22.4862 61.0051 6.00046 55.0878 16.2512 52.2238ZM14.6564 44.9248C14.6564 44.9248 11.7991 47.0399 16.163 47.4912C21.8062 48.0734 26.2628 48.1211 33.9744 46.6361C33.9744 46.6361 35.0411 47.7175 36.7183 48.3089C20.9392 52.9229 3.36414 48.6727 14.6564 44.9248Z" fill="white"/>
    <path d="M28.1005 32.5436C31.3163 36.2458 27.2556 39.5774 27.2556 39.5774C27.2556 39.5774 35.4207 35.3623 31.6708 30.0839C28.1686 25.1618 25.4827 22.7158 40.0226 14.2833C40.0226 14.2833 17.1999 19.9833 28.1005 32.5434" fill="#E76F00"/>
    <path d="M45.361 57.6225C45.361 57.6225 47.2463 59.1758 43.2847 60.3776C35.7517 62.6597 11.9315 63.3488 5.31422 60.4685C2.93559 59.4339 7.39637 57.9978 8.79946 57.6963C10.2628 57.379 11.0991 57.4382 11.0991 57.4382C8.45375 55.5746 -5.99947 61.0974 3.75768 62.6788C30.3666 66.9941 52.263 60.7358 45.361 57.6225ZM17.4761 37.3623C17.4761 37.3623 5.35978 40.2403 13.1855 41.2852C16.4897 41.7276 23.0766 41.6276 29.2123 41.1134C34.2266 40.6906 39.2617 39.7912 39.2617 39.7912C39.2617 39.7912 37.4936 40.5484 36.2144 41.4218C23.9103 44.6579 0.140996 43.1525 6.98388 39.8423C12.7709 37.045 17.4763 37.3623 17.4763 37.3623H17.4761ZM39.2117 49.5117C51.7196 43.0121 45.9364 36.7663 41.8999 37.6079C40.9105 37.8136 40.4694 37.992 40.4694 37.992C40.4694 37.992 40.8367 37.4168 41.5382 37.1678C49.5236 34.3602 55.665 45.4479 38.9604 49.8392C38.9604 49.8394 39.154 49.6665 39.2117 49.5117Z" fill="white"/>
    <path d="M31.6709 0.666819C31.6709 0.666819 38.5979 7.59636 25.1009 18.2515C14.2779 26.7989 22.6329 31.6724 25.0965 37.2405C18.7788 31.5406 14.1424 26.5227 17.253 21.8527C21.8182 14.9971 34.4657 11.6734 31.6709 0.666626" fill="#E76F00"/>
    <path d="M18.7052 67.1237C30.7111 67.8923 49.1474 66.6973 49.584 61.0165C49.584 61.0165 48.7447 63.1702 39.6618 64.8804C29.4145 66.8087 16.7761 66.5836 9.28003 65.3477C9.28022 65.3477 10.8146 66.6178 18.7054 67.1237" fill="white"/>
</svg>