<svg width="31" height="70" viewBox="0 0 31 70" fill="none" xmlns="http://www.w3.org/2000/svg">
<path d="M15.2822 0.854858L17.1204 4.30735C17.5336 4.94447 17.9814 5.5084 18.5087 6.0336C20.0548 7.56037 21.4959 9.18988 22.8222 10.911C25.9367 15.0006 28.0375 19.5422 29.5378 24.4541C30.4375 27.4545 30.9261 30.5325 30.9627 33.6449C31.1134 42.9499 27.9234 50.9397 21.492 57.5799C20.4458 58.6329 19.3156 59.5989 18.1126 60.4685C17.4755 60.4685 17.1742 59.9799 16.9116 59.53C16.4334 58.6958 16.1151 57.7797 15.9731 56.8287C15.7471 55.703 15.5986 54.5773 15.6718 53.415V52.8898C15.6201 52.7778 15.0583 1.11961 15.2822 0.854858Z" fill="#599636"/>
<path d="M15.2822 0.740676C15.2068 0.590006 15.1315 0.704085 15.0561 0.777267C15.0927 1.53062 14.8301 2.20217 14.419 2.8436C13.967 3.48072 13.3686 3.96932 12.7681 4.49451C9.43185 7.38307 6.80588 10.8722 4.70295 14.7745C1.90479 20.0264 0.462666 25.655 0.0537043 31.5807C-0.133557 33.718 0.729567 41.2601 1.40328 43.4362C3.24145 49.2134 6.54328 54.0542 10.8202 58.2557C11.8705 59.2673 12.9941 60.2058 14.1564 61.1077C14.4944 61.1077 14.531 60.8063 14.6084 60.5825C14.7566 60.1035 14.8695 59.6143 14.9464 59.1188L15.6997 53.4924L15.2822 0.740676Z" fill="#6CAC48"/>
<path d="M17.1204 62.7542C17.1957 61.8932 17.609 61.1786 18.0589 60.4662C17.6068 60.2789 17.2711 59.9066 17.0085 59.4911C16.782 59.0978 16.5946 58.6833 16.4488 58.2535C15.9236 56.6779 15.8117 55.0249 15.661 53.4149V52.4398C15.4738 52.5905 15.435 53.8647 15.435 54.0541C15.3255 55.7558 15.0997 57.4479 14.7592 59.1188C14.6472 59.7946 14.5719 60.4683 14.1565 61.0689C14.1565 61.1442 14.1565 61.2195 14.1931 61.3315C14.869 63.3203 15.0541 65.3457 15.1681 67.4099V68.1632C15.1681 69.0629 15.1315 68.8735 15.8784 69.1749C16.1798 69.2868 16.5156 69.3255 16.8169 69.5494C17.0429 69.5494 17.0795 69.3621 17.0795 69.2115L16.9676 67.9738V64.5213C16.931 63.9187 17.0429 63.3203 17.1182 62.7564L17.1204 62.7542Z" fill="#C2BFBF"/>
</svg>
