<svg width="68" height="68" viewBox="0 0 68 68" fill="none" xmlns="http://www.w3.org/2000/svg">
<path d="M62.0736 52.1636C58.4463 52.0718 55.6351 52.44 53.2773 53.4524C52.5971 53.7283 51.5088 53.7286 51.4181 54.6032C51.7809 54.9714 51.8262 55.5698 52.1436 56.0759C52.6883 56.9962 53.6398 58.2391 54.5014 58.8838C55.4534 59.62 56.406 60.3562 57.4031 61.0006C59.1716 62.1054 61.1669 62.7495 62.8898 63.8543C63.8877 64.4982 64.8846 65.3272 65.8822 66.0174C66.381 66.3851 66.6982 66.9841 67.3333 67.214V67.0761C67.0156 66.6616 66.9249 66.0635 66.6077 65.6032C66.1548 65.1429 65.7008 64.7286 65.2473 64.2683C63.9325 62.4736 62.3003 60.9086 60.532 59.62C59.0812 58.6073 55.9069 57.2266 55.3177 55.5235C55.3177 55.5235 55.272 55.4777 55.227 55.4317C56.2243 55.3397 57.4031 54.9714 58.3556 54.6952C59.8972 54.2807 61.3027 54.373 62.8898 53.9587C63.6151 53.7746 64.3407 53.5445 65.0659 53.3143V52.9003C64.2502 52.0718 63.6607 50.9673 62.7991 50.1848C60.4867 48.1591 57.9473 46.1804 55.3177 44.5235C53.9119 43.6029 52.098 43.0045 50.6018 42.2223C50.0582 41.9458 49.151 41.808 48.8338 41.3477C48.0173 40.3353 47.5639 39.0006 46.9746 37.8039C45.6601 35.2722 44.3901 32.4648 43.2564 29.7956C42.4407 28.0004 41.9419 26.2052 40.9442 24.5486C36.274 16.7242 31.1957 11.9836 23.3971 7.33477C21.7192 6.36839 19.7242 5.95411 17.5932 5.44804C16.46 5.40175 15.3261 5.30995 14.1927 5.26366C13.4671 4.94144 12.7416 4.06713 12.1067 3.65285C9.52273 1.99575 2.857 -1.59385 0.952685 3.14678C-0.271682 6.13824 2.76656 9.08367 3.80902 10.6029C4.58044 11.6614 5.57755 12.8579 6.12171 14.0547C6.43914 14.8367 6.52958 15.6658 6.847 16.4941C7.57282 18.5186 8.2525 20.7744 9.20504 22.6616C9.70386 23.628 10.2478 24.6404 10.8826 25.515C11.2454 26.0211 11.88 26.2515 12.0163 27.0798C11.3817 28.0004 11.3361 29.3813 10.9731 30.5318C9.34082 35.7327 9.97594 42.1762 12.2881 45.9962C13.0134 47.1465 14.7366 49.6787 17.049 48.7118C19.0896 47.8835 18.6362 45.26 19.2252 42.9588C19.3617 42.4059 19.271 42.0381 19.5428 41.6699V41.7622C20.1777 43.0505 20.8123 44.2936 21.4018 45.5822C22.8076 47.8372 25.2558 50.1848 27.2961 51.7498C28.3847 52.5778 29.246 54.0048 30.6064 54.5111V54.3728H30.5155C30.2434 53.9585 29.8353 53.7746 29.4728 53.4521C28.6568 52.6241 27.7496 51.6114 27.115 50.6908C25.2109 48.1131 23.5328 45.2598 22.0367 42.3141C21.3114 40.8876 20.6763 39.3226 20.087 37.8959C19.8147 37.343 19.8147 36.515 19.3615 36.2391C18.6812 37.2515 17.6839 38.1261 17.1851 39.3686C16.324 41.3477 16.233 43.787 15.9156 46.3182C15.7342 46.3647 15.8247 46.3182 15.734 46.4108C14.2834 46.042 13.7846 44.5235 13.2401 43.2347C11.8797 39.967 11.653 34.7201 12.8323 30.9461C13.1497 29.9794 14.5101 26.942 13.966 26.0213C13.6939 25.1468 12.7867 24.6404 12.2881 23.9502C11.6989 23.0756 11.0637 21.9714 10.6559 21.0045C9.56756 18.4271 9.0234 15.5735 7.84464 12.996C7.30047 11.7992 6.34871 10.5569 5.57755 9.45218C4.71622 8.20961 3.76393 7.33477 3.08373 5.86205C2.85726 5.35598 2.53957 4.52743 2.90234 3.97506C2.99304 3.60682 3.17416 3.46899 3.5372 3.37693C4.12671 2.87033 5.80455 3.51476 6.39353 3.79094C8.07137 4.48087 9.47686 5.12583 10.8826 6.09221C11.5172 6.55251 12.1974 7.42709 13.0134 7.65725H13.9657C15.4168 7.9792 17.0488 7.74931 18.4092 8.16332C20.8126 8.94557 22.9887 10.0963 24.9386 11.3392C30.8785 15.1592 35.775 20.5903 39.0853 27.0798C39.6294 28.138 39.8559 29.1051 40.3547 30.2093C41.3073 32.4648 42.486 34.7661 43.4378 36.9753C44.3901 39.1382 45.2968 41.3477 46.6572 43.1429C47.3374 44.109 50.0577 44.6156 51.282 45.1219C52.189 45.5359 53.5947 45.9044 54.4107 46.4105C55.9522 47.3766 57.4938 48.4819 58.9449 49.5401C59.6704 50.0924 61.9373 51.2432 62.0736 52.1636Z" fill="white"/>
<path d="M15.8244 12.1672C15.0538 12.1672 14.5099 12.2598 13.9657 12.3977V12.4897H14.0564C14.4194 13.2262 15.0538 13.7325 15.507 14.3767C15.87 15.1129 16.1872 15.8497 16.5502 16.5862C16.5953 16.5399 16.6406 16.4941 16.6406 16.4941C17.2758 16.0335 17.5929 15.2973 17.5929 14.1926C17.3208 13.8706 17.2755 13.5484 17.0488 13.2262C16.7769 12.7656 16.1872 12.5357 15.8244 12.1672Z" fill="white"/>
</svg>
