<svg width="68" height="68" viewBox="0 0 68 34" fill="none" xmlns="http://www.w3.org/2000/svg">
<path fill-rule="evenodd" clip-rule="evenodd" d="M34 33.8924C52.4095 33.8924 67.3333 26.3291 67.3333 17C67.3333 7.67082 52.4095 0.107544 34 0.107544C15.5908 0.107544 0.666626 7.67082 0.666626 17C0.666626 26.3291 15.5908 33.8924 34 33.8924Z" fill="#6E81B6"/>
<path fill-rule="evenodd" clip-rule="evenodd" d="M40.7553 22.4598L42.4088 13.9501C42.782 12.0295 42.4716 10.5969 41.4869 9.69163C40.5329 8.81575 38.9133 8.3897 36.536 8.3897H33.6725L34.4916 4.17355C34.5069 4.09509 34.5047 4.01419 34.4851 3.93668C34.4655 3.85916 34.429 3.78695 34.3782 3.72522C34.3273 3.6635 34.2635 3.61379 34.1912 3.57966C34.1189 3.54553 34.0399 3.52783 33.9599 3.52783H30.0078C29.7482 3.52783 29.5253 3.71204 29.4757 3.96678L27.7196 13.0009C27.5599 11.9843 27.1665 11.1104 26.5369 10.3893C25.3777 9.06243 23.5441 8.3897 21.0866 8.3897H13.4266C13.167 8.3897 12.9441 8.57391 12.8945 8.82825L9.34063 27.1149C9.3096 27.2741 9.35111 27.4377 9.4543 27.5627C9.55708 27.6881 9.71025 27.7602 9.87269 27.7602H13.8559C14.1154 27.7602 14.3383 27.576 14.3879 27.3209L15.2477 22.8979H18.2127C19.7685 22.8979 21.0761 22.7294 22.0967 22.3973C23.1402 22.0579 24.1008 21.4823 24.9472 20.6899C25.6312 20.0615 26.1963 19.3577 26.6313 18.5987L25.9214 22.2522C25.8904 22.4114 25.9319 22.5759 26.0351 22.7C26.1379 22.8254 26.2915 22.8975 26.4535 22.8975H30.4056C30.6652 22.8975 30.8881 22.7133 30.9377 22.459L32.8882 12.4212H35.6C36.7557 12.4212 37.0942 12.6514 37.1865 12.7502C37.27 12.8404 37.4433 13.1585 37.2486 14.1609L35.6766 22.2518C35.6616 22.3302 35.664 22.4111 35.6838 22.4885C35.7035 22.5659 35.7401 22.6379 35.7909 22.6996C35.8417 22.7612 35.9055 22.8109 35.9777 22.845C36.0499 22.8792 36.1288 22.897 36.2087 22.8971H40.2237C40.3493 22.8974 40.4711 22.8539 40.5681 22.774C40.6652 22.6942 40.7314 22.5831 40.7553 22.4598ZM22.4324 15.4286C22.1842 16.7043 21.7166 17.614 21.0418 18.1328C20.3566 18.6612 19.2607 18.9289 17.7842 18.9289H16.0187L17.2953 12.3596H19.5779C21.2547 12.3596 21.9302 12.7179 22.2015 13.0182C22.5776 13.435 22.6574 14.2689 22.4324 15.4286ZM57.4027 10.3893C56.2438 9.06243 54.4103 8.3897 51.9527 8.3897H44.2927C44.0327 8.3897 43.8102 8.57391 43.7607 8.82825L40.2072 27.1149C40.1757 27.2741 40.2172 27.4377 40.3204 27.5627C40.4236 27.6877 40.5772 27.7602 40.7384 27.7602H44.722C44.982 27.7602 45.2045 27.576 45.254 27.3209L46.1138 22.8979H49.0792C50.6355 22.8979 51.9418 22.7294 52.9628 22.3973C54.0068 22.0579 54.9673 21.4823 55.8134 20.6899C56.5195 20.0413 57.1004 19.3122 57.5405 18.525C57.9807 17.7378 58.2963 16.8599 58.4805 15.9151C58.9331 13.5849 58.5708 11.7259 57.4027 10.3893ZM53.5247 15.4286C53.276 16.7043 52.8084 17.614 52.1345 18.1328C51.4489 18.6612 50.3529 18.9289 48.8769 18.9289H47.111L48.3871 12.3596H50.6701C52.3469 12.3596 53.0225 12.7179 53.2941 13.0182C53.6694 13.435 53.7496 14.2689 53.5247 15.4286Z" fill="white"/>
<path fill-rule="evenodd" clip-rule="evenodd" d="M19.4647 11.8175C20.9778 11.8175 21.9867 12.0969 22.4909 12.6555C22.9948 13.2142 23.1149 14.1735 22.8513 15.5322C22.5756 16.9474 22.0451 17.9575 21.2591 18.5629C20.4731 19.1684 19.2768 19.4707 17.671 19.4707H15.2477L16.735 11.8175H19.4647ZM9.75903 27.2181H13.7422L14.6874 22.3567H18.0994C19.6049 22.3567 20.8436 22.1983 21.8158 21.8818C22.788 21.5654 23.6719 21.0354 24.4672 20.2909C25.1347 19.6778 25.6748 19.0007 26.0884 18.2606C26.5015 17.5206 26.795 16.7044 26.9687 15.8116C27.3903 13.6438 27.0723 11.9554 26.0154 10.7462C24.959 9.53654 23.2777 8.93193 20.9734 8.93193H13.3133L9.75903 27.2181ZM29.8942 4.07007H33.8463L32.9015 8.93193H36.4228C38.6373 8.93193 40.1661 9.31807 41.007 10.0908C41.8478 10.8635 42.0997 12.1158 41.7635 13.847L40.1101 22.3567H36.0951L37.6671 14.2654C37.8456 13.3448 37.7803 12.7172 37.4696 12.3822C37.1588 12.0477 36.4974 11.88 35.4864 11.88H32.328L30.292 22.3567H26.3399L29.8942 4.07007ZM50.557 11.8175C52.0701 11.8175 53.0786 12.0969 53.5833 12.6555C54.0871 13.2142 54.2068 14.1735 53.9432 15.5322C53.6683 16.9474 53.1379 17.9575 52.3515 18.5629C51.5659 19.1684 50.3692 19.4707 48.7641 19.4707H46.3408L47.8278 11.8175H50.557ZM40.8506 27.2181H44.8341L45.7789 22.3567H49.191C50.6968 22.3567 51.9355 22.1983 52.9077 21.8818C53.8799 21.5654 54.7639 21.0354 55.5591 20.2909C56.2266 19.6778 56.7667 19.0007 57.1799 18.2606C57.593 17.5206 57.8869 16.7044 58.061 15.8116C58.4822 13.6438 58.1642 11.9554 57.1077 10.7462C56.0505 9.53654 54.3697 8.93193 52.0653 8.93193H44.4053L40.8506 27.2181Z" fill="black"/>
</svg>
