<svg width="68" height="72" viewBox="0 0 68 72" fill="none" xmlns="http://www.w3.org/2000/svg">
<path d="M33.6067 41.8644C36.8455 42.0816 39.6471 39.6322 39.8643 36.3934C40.0816 33.1547 37.6321 30.353 34.3934 30.1358C31.1546 29.9185 28.3529 32.368 28.1357 35.6067C27.9185 38.8455 30.3679 41.6472 33.6067 41.8644Z" fill="#61DAFB"/>
<path d="M33.1941 48.0147C50.5728 49.1804 65.0219 44.7462 65.467 38.1106C65.912 31.4751 52.1846 25.151 34.8058 23.9854C17.427 22.8197 2.97795 27.2539 2.53288 33.8894C2.08781 40.525 15.8153 46.8491 33.1941 48.0147Z" stroke="#61DAFB" stroke-width="5"/>
<path d="M23.192 41.3095C30.8719 56.9428 41.9366 67.2389 47.9056 64.3066C53.8747 61.3743 52.4878 46.3239 44.8079 30.6906C37.128 15.0573 26.0633 4.76115 20.0943 7.69348C14.1252 10.6258 15.5121 25.6762 23.192 41.3095Z" stroke="#61DAFB" stroke-width="5"/>
<path d="M23.9978 29.2947C14.299 43.7624 10.9146 58.4927 16.4386 62.1959C21.9626 65.8992 34.3031 57.1729 44.002 42.7052C53.7009 28.2376 57.0853 13.5072 51.5613 9.80403C46.0373 6.10083 33.6967 14.8271 23.9978 29.2947Z" stroke="#61DAFB" stroke-width="5"/>
</svg>
