<svg width="68" height="68" viewBox="0 0 68 68" fill="none" xmlns="http://www.w3.org/2000/svg">
<path d="M61.3725 4.53049C60.4147 6.85898 59.1761 8.92325 57.8055 10.7728C51.7613 4.61307 43.3061 0.699219 33.9756 0.699219C15.6449 0.699219 0.666626 15.595 0.666626 33.9917C0.666626 43.6029 4.77864 52.2563 11.3017 58.3665L12.5403 59.473C18.3037 64.3446 25.8011 67.3007 33.9591 67.3007C51.464 67.3007 65.8809 53.6435 67.1194 36.4027C68.1103 28.0301 65.5671 17.3124 61.3725 4.53049ZM16.1238 58.6473C15.166 59.8858 13.3825 60.0179 12.1439 59.0601C10.9054 58.1023 10.7733 56.3188 11.7311 55.0802C12.6889 53.8417 14.4724 53.7095 15.711 54.6674C16.8835 55.6252 17.0817 57.4087 16.1238 58.6473ZM61.1744 48.6892C52.9999 59.6051 35.4288 55.9059 24.2323 56.4509C24.2323 56.4509 22.2341 56.583 20.2524 56.8637C20.2524 56.8637 21.012 56.5169 21.9698 56.1701C29.8636 53.4288 33.5793 52.8673 38.3849 50.4067C47.3851 45.7993 56.3687 35.7091 58.1688 25.2722C54.7338 35.2963 44.2969 43.9497 34.8178 47.4507C28.2947 49.8617 16.5532 52.1902 16.5532 52.1902L16.0743 51.9095C8.11449 47.9957 7.83375 30.6889 22.3992 25.1236C28.7902 22.6465 34.8343 24.0172 41.7703 22.3823C49.119 20.6648 57.6403 15.1656 61.0588 7.96543C64.8735 19.5749 69.547 37.5587 61.1744 48.6892Z" fill="#6CB52D"/>
<path d="M16.1238 58.6473C15.166 59.8858 13.3825 60.0179 12.1439 59.0601C10.9054 58.1023 10.7733 56.3188 11.7311 55.0802C12.6889 53.8417 14.4724 53.7096 15.711 54.6674C16.8835 55.6252 17.0817 57.4087 16.1238 58.6473Z" fill="#6CB52D"/>
</svg>
