<svg width="20" height="20" viewBox="0 0 24 24" fill="none" xmlns="http://www.w3.org/2000/svg">
<path d="M9.99999 7C7.19999 7 4.99999 9.2 4.99999 12C4.99999 14.8 7.19999 17 9.99999 17C12.8 17 15 14.8 15 12C15 9.2 12.8 7 9.99999 7ZM9.99999 15C8.29999 15 6.99999 13.7 6.99999 12C6.99999 10.3 8.29999 9 9.99999 9C11.7 9 13 10.3 13 12C13 13.7 11.7 15 9.99999 15ZM9.99999 2L12.4 5.4C11.6 5.2 10.8 5 9.99999 5C9.19999 5 8.39999 5.2 7.59999 5.4L9.99999 2ZM1.29999 7L5.49999 6.7C4.89999 7.2 4.39999 7.8 3.89999 8.5C3.49999 9.2 3.19999 10 3.09999 10.8L1.29999 7ZM1.39999 17L3.19999 13.2C3.29999 14 3.49999 14.8 3.99999 15.5C4.39999 16.2 4.99999 16.9 5.49999 17.4L1.39999 17ZM9.99999 22L7.59999 18.6C8.29999 18.8 9.09999 19 9.99999 19C10.8 19 11.6 18.8 12.4 18.6L9.99999 22ZM20.8 13.6V6.8C20.8 5.8 20 5 19 5C18 5 17.2 5.8 17.2 6.8V13.6C16.5 14.1 16 15 16 16C16 17.7 17.3 19 19 19C20.7 19 22 17.7 22 16C22 15 21.5 14.1 20.8 13.6ZM18.2 6.8C18.2 6.3 18.6 6 19 6C19.4 6 19.8 6.3 19.8 6.8V8H18.3V6.8H18.2Z" fill="black"/>
</svg>
